<svg width="28" height="28" viewBox="0 0 28 28" fill="none" xmlns="http://www.w3.org/2000/svg">
<path id="Vector" d="M26 25.0146L18 17.3431M20.6667 10.9501C20.6667 12.1255 20.4253 13.2893 19.9562 14.3752C19.4872 15.4611 18.7997 16.4477 17.933 17.2788C17.0663 18.1099 16.0374 18.7692 14.905 19.219C13.7727 19.6687 12.559 19.9002 11.3333 19.9002C10.1077 19.9002 8.89399 19.6687 7.76162 19.219C6.62925 18.7692 5.60035 18.1099 4.73367 17.2788C3.86699 16.4477 3.1795 15.4611 2.71046 14.3752C2.24141 13.2893 2 12.1255 2 10.9501C2 8.5764 2.98333 6.2999 4.73367 4.62143C6.48401 2.94296 8.85798 2 11.3333 2C13.8087 2 16.1827 2.94296 17.933 4.62143C19.6833 6.2999 20.6667 8.5764 20.6667 10.9501Z" stroke="white" stroke-width="4" stroke-linecap="round" stroke-linejoin="round"/>
</svg>
